<svg width="679" height="706" viewBox="0 0 679 706" fill="none" xmlns="http://www.w3.org/2000/svg">
<path d="M624.793 545.738C587.893 544.744 559.324 548.681 535.345 559.432C528.422 562.361 517.414 562.361 516.451 571.634C520.191 575.558 520.622 581.888 523.868 587.302C529.397 597.072 539.035 610.216 547.834 617.069C557.497 624.917 567.197 632.685 577.366 639.525C595.298 651.283 615.624 658.123 633.099 669.842C643.28 676.656 653.4 685.471 663.593 692.808C668.604 696.718 671.812 703.062 678.316 705.507V704.016C675.058 699.622 674.132 693.266 670.936 688.374L657.09 674.223C643.712 655.181 627.088 638.558 609.157 624.904C594.397 614.127 562.113 599.479 556.128 581.456L555.19 580.462C565.334 579.455 577.366 575.558 587.005 572.563C602.69 568.181 616.993 569.175 633.086 564.794C640.491 562.832 647.834 560.373 655.263 557.954V553.546C646.921 544.744 640.972 533.052 632.198 524.734C608.725 503.246 582.858 482.228 556.128 464.638C541.812 454.842 523.399 448.538 508.158 440.207C502.666 437.264 493.41 435.812 490.177 430.921C481.909 420.17 477.256 406.019 471.258 393.293C457.93 366.443 444.984 336.65 433.482 308.256C425.165 289.213 420.105 270.197 409.96 252.58C362.447 169.531 310.85 119.23 231.546 69.858C214.503 59.5782 194.227 55.1968 172.568 49.8084L137.976 47.8728C130.596 44.4462 123.204 35.1472 116.762 30.7528C90.4512 13.1751 22.7112 -24.9231 3.36048 25.3775C-9.10396 57.1717 21.7979 88.4297 32.4112 104.556C40.2478 115.751 50.4044 128.49 55.8839 141.202C59.1296 149.507 60.0429 158.322 63.2886 167.098C70.6685 188.599 77.567 212.52 87.2671 232.583C92.3269 242.81 97.8434 253.561 104.31 262.821C108.012 268.235 114.454 270.629 115.861 279.457C109.432 289.187 108.926 303.875 105.236 316.09C88.6493 371.295 95.1283 439.683 118.638 480.254C125.993 492.469 143.542 519.359 167.015 509.053C187.797 500.264 183.194 472.419 189.167 448.001C190.537 442.103 189.636 438.232 192.4 434.36V435.315C198.83 448.982 205.321 462.153 211.282 475.859C225.585 499.78 250.49 524.708 271.235 541.279C282.28 550.12 291.03 565.239 304.864 570.64V569.175H303.951C301.15 564.794 297.052 562.832 293.375 559.432C285.057 550.63 275.85 539.879 269.396 530.122C250.07 502.749 232.965 472.446 217.786 441.174C210.357 426.003 203.952 409.419 197.966 394.274C195.177 388.428 195.177 379.613 190.549 376.67C183.614 387.408 173.506 396.707 168.446 409.864C159.672 430.908 158.759 456.79 155.501 483.706L153.687 484.648C139.001 480.737 133.892 464.638 128.313 450.97C114.504 416.26 112.184 360.544 124.167 320.498C127.376 310.257 141.259 278.005 135.718 268.248C132.941 258.897 123.71 253.574 118.65 246.211C112.702 236.951 106.186 225.233 102.039 214.953C90.9818 187.605 85.416 157.302 73.5069 129.968C67.9411 117.229 58.2781 104.046 50.4539 92.3141C41.6671 79.1308 32.004 69.845 25.056 54.216C22.7605 48.8406 19.5396 40.0517 23.2295 34.2056C24.1304 30.282 26.0062 28.8172 29.6838 27.8363C35.6569 22.4871 52.7246 29.288 58.71 32.2307C75.8023 39.5547 90.0932 46.3949 104.359 56.6485C110.814 61.553 117.737 70.8389 126.018 73.2846H135.718C150.441 76.6851 167.04 74.2263 180.899 78.6469C205.321 86.9649 227.449 99.1673 247.293 112.338C307.678 152.921 357.474 210.584 391.091 279.457C396.607 290.678 398.952 300.958 403.987 312.663C413.7 336.624 425.708 361.054 435.346 384.505C445.034 407.458 454.265 430.895 468.099 449.963C474.998 460.217 502.716 465.592 515.143 470.968C524.337 475.349 538.653 479.246 546.946 484.622C562.631 494.862 578.255 506.62 593.003 517.881C600.346 523.74 623.423 535.956 624.793 545.738V545.738ZM154.526 121.153C148.161 121.082 141.816 121.909 135.656 123.611V124.592H136.545C140.26 132.4 146.714 137.815 151.317 144.629C155.032 152.463 158.253 160.232 161.893 168.053L162.782 167.085C169.286 162.206 172.519 154.385 172.519 142.654C169.718 139.201 169.286 135.827 166.953 132.4C164.238 127.509 158.253 125.076 154.526 121.153" fill="#F8981D"/>
<path d="M625.381 702H631.493V667.009H622.325L614.848 690.888L606.722 667.009H597.894V702H603.666V675.378H603.99L612.502 702H616.901L625.381 675.378V702ZM576.148 702H582.615V672.94H591.08V667H567.328V672.94H576.132L576.148 702Z" fill="#F8981D"/>
</svg>
